<svg width="80" height="80" viewBox="0 0 80 80" fill="none" xmlns="http://www.w3.org/2000/svg">
<g clip-path="url(#clip0_2269_34531)">
<path fill-rule="evenodd" clip-rule="evenodd" d="M38.4592 17.6296L44.1122 0.128906L49.5799 1.89506L39.4212 33.3444L28.5508 9.93426L33.7622 7.51435L38.4592 17.6296Z" fill="white"/>
<path fill-rule="evenodd" clip-rule="evenodd" d="M54.7306 23.0925L58.5618 12.6207L53.1657 10.6465L44.2969 34.8877L73.7179 19.8288L71.0999 14.714L54.7306 23.0925Z" fill="white"/>
<path fill-rule="evenodd" clip-rule="evenodd" d="M62.3671 38.4597L72.4824 33.7627L70.0625 28.5513L46.6523 39.4217L78.1017 49.5804L79.8679 44.1127L62.3671 38.4597Z" fill="white"/>
<path fill-rule="evenodd" clip-rule="evenodd" d="M45.1094 44.2959L69.3505 53.1647L67.3763 58.5608L56.9046 54.7296L65.283 71.0989L60.1683 73.7169L45.1094 44.2959Z" fill="white"/>
<path fill-rule="evenodd" clip-rule="evenodd" d="M40.5766 46.6523L51.4471 70.0625L46.2357 72.4824L41.5387 62.3671L35.8857 79.8679L30.418 78.1017L40.5766 46.6523Z" fill="white"/>
<path fill-rule="evenodd" clip-rule="evenodd" d="M35.7022 45.1094L26.8334 69.3505L21.4373 67.3764L25.2685 56.9046L8.89921 65.283L6.28125 60.1683L35.7022 45.1094Z" fill="white"/>
<path fill-rule="evenodd" clip-rule="evenodd" d="M17.6296 41.5377L0.128906 35.8847L1.89506 30.417L33.3444 40.5757L9.93426 51.4461L7.51435 46.2347L17.6296 41.5377Z" fill="white"/>
<path fill-rule="evenodd" clip-rule="evenodd" d="M23.0918 25.2695L14.7124 8.89822L19.8272 6.28027L34.8883 35.7058L10.6445 26.8323L12.6195 21.4365L23.0918 25.2695Z" fill="white"/>
</g>
<defs>
<clipPath id="clip0_2269_34531">
<rect width="80" height="80" fill="white"/>
</clipPath>
</defs>
</svg>
