<svg fill="none" xmlns="http://www.w3.org/2000/svg">
  <g>
    <path d="M19.2298 8.81481L22.0564 0.0644531L24.7902 0.94753L19.7109 16.6722L14.2756 4.96713L16.8813 3.75717L19.2298 8.81481Z" fill="#8800FF"/>
    <path d="M27.3649 11.5462L29.2805 6.31034L26.5825 5.32324L22.1481 17.4438L36.8586 9.91439L35.5496 7.35699L27.3649 11.5462Z" fill="#117D45"/>
    <path d="M31.1835 19.2301L36.2411 16.8816L35.0312 14.2759L23.3261 19.7111L39.0508 24.7904L39.9339 22.0566L31.1835 19.2301Z" fill="#91F925"/>
    <path d="M22.5547 22.1479L34.6753 26.5824L33.6882 29.2804L28.4523 27.3648L32.6415 35.5495L30.0841 36.8584L22.5547 22.1479Z" fill="#332BFD"/>
    <path d="M20.2879 23.3262L25.7231 35.0312L23.1174 36.2412L20.7689 31.1836L17.9424 39.9339L15.2086 39.0508L20.2879 23.3262Z" fill="#FA0B54"/>
    <path d="M17.8507 22.5547L13.4163 34.6753L10.7183 33.6882L12.6339 28.4523L4.44924 32.6415L3.14026 30.0841L17.8507 22.5547Z" fill="#FB42DF"/>
    <path d="M8.81487 20.7689L0.0645142 17.9423L0.947592 15.2085L16.6723 20.2878L4.96719 25.7231L3.75723 23.1174L8.81487 20.7689Z" fill="#FBA808"/>
    <path d="M11.5468 12.6347L7.35711 4.44911L9.91451 3.14014L17.4451 17.8529L5.32318 13.4161L6.31064 10.7182L11.5468 12.6347Z" fill="#0BC1FA"/>
  </g>
</svg>
